# xmcd
#
# Track frame offsets: 
#        150
#        29227
#        45892
#        72622
#        90542
#        110890
#        139452
#        163495
#        183632
#        204150
#        223305
#        264470
#        282305
#        306795
#        328095
#
# Disc length: 4637 seconds
#
# Revision: 3
# Processed by: cddbd v1.5.2PL0 Copyright (c) Steve Scherf et al.
# Submitted via: ExactAudioCopy v1.1
#
DISCID=f8121b0f
DTITLE=Free - Free Live! [Remaster]
DYEAR=1971
DGENRE=Rock
TTITLE0=All Right Now (Sunderland 01-70 early)
TTITLE1=I'm A Mover (Croydon 09-13-70)
TTITLE2=Be My Friend (Croydon 09-13-70 early)
TTITLE3=Fire And Water (Croydon 09-13-70 early)
TTITLE4=Ride On A Pony (Croydon 09-13-70 late)
TTITLE5=Mr. Big (Croydon 09-13-70 early)
TTITLE6=The Hunter (Sunderland 01-70 early)
TTITLE7=Get Where I Belong
TTITLE8=Woman (Croydon 09-13-70)
TTITLE9=Walk In My Shadow (Croydon 09-13-70)
TTITLE10=Moonshine (Sunderland 01-70)
TTITLE11=Trouble On Double Time (Sunderland 01-70)
TTITLE12=Mr. Big (Sunderland 01-70)
TTITLE13=All Right Now (Croydon 09-13-70)
TTITLE14=Get Where I Belong (alt)
EXTD=YEAR: 1971
EXTT0=
EXTT1=
EXTT2=
EXTT3=
EXTT4=
EXTT5=
EXTT6=
EXTT7=
EXTT8=
EXTT9=
EXTT10=
EXTT11=
EXTT12=
EXTT13=
EXTT14=
PLAYORDER=
